# xmcd
#
# Track frame offsets: 
#        150
#        16402
#        34105
#        51269
#        72400
#        87669
#        105380
#        123704
#        143604
#        163626
#        183646
#        206267
#        224964
#
# Disc length: 3298 seconds
#
# Revision: 0
# Processed by: cddbd v1.5.2PL0 Copyright (c) Steve Scherf et al.
# Submitted via: ExactAudioCopyFreeDBPlugin 1.0
#
DISCID=c50ce00d
DTITLE=陳影  - 等一個晴天
DYEAR=1900
DGENRE=Pop
TTITLE0=陳影 - 等一個晴天
TTITLE1=陳影 - 紅豆
TTITLE2=陳影 - 一直很安靜
TTITLE3=陳影 - 你是我的唯一
TTITLE4=陳影 - 遇見
TTITLE5=陳影 - 你知道我有多愛你
TTITLE6=陳影 - 約定
TTITLE7=陳影 - 第一次
TTITLE8=陳影 - 眼淚
TTITLE9=陳影 - 說你愛我
TTITLE10=陳影 - 離別的車站
TTITLE11=陳影 - 鴛鴦錦
TTITLE12=陳影 - 回家
EXTD=
EXTT0=
EXTT1=
EXTT2=
EXTT3=
EXTT4=
EXTT5=
EXTT6=
EXTT7=
EXTT8=
EXTT9=
EXTT10=
EXTT11=
EXTT12=
PLAYORDER=
